<!-- sprite.svg -->
<svg xmlns="http://www.w3.org/2000/svg" xmlns:xlink="http://www.w3.org/1999/xlink">
    <defs>
        <symbol viewBox="0 0 25 21" id="retract">
            <path fill-rule="evenodd" clip-rule="evenodd"
                d="M23.4012 21C23.0708 21 22.7341 20.8971 22.4355 20.6703L10.7927 11.76C10.4031 11.4618 10.1765 11.0019 10.1765 10.5189C10.1765 10.0317 10.4009 9.5739 10.7906 9.2757C11.6684 8.60157 12.8364 7.70442 14.1269 6.71314C16.8808 4.59791 20.1927 2.05406 22.4334 0.333899C22.732 0.104998 23.0687 0 23.4012 0C24.2228 0 25 0.640499 25 1.575L25 19.4271C25 20.3574 24.2249 21 23.4012 21ZM23.0588 18.6952L23.0588 2.31741L15.7362 8.00888V13.0154L23.0588 18.6952ZM13.795 11.5097V9.51765L12.5122 10.5147L13.795 11.5097ZM15.7362 1.575V5.00338L13.795 6.49438V2.31741L3.24845 10.5147L13.795 18.6952V14.5297L15.7362 16.0153V19.4271C15.7362 20.3574 14.9612 21 14.1374 21C13.807 21 13.4703 20.8971 13.1717 20.6703L1.52892 11.76C1.13927 11.4618 0.912685 11.0019 0.912685 10.5189C0.912685 10.0317 1.13715 9.5739 1.5268 9.2757L4.86316 6.71314L4.86925 6.70847C7.6219 4.59416 10.9305 2.0528 13.1696 0.333899C13.4682 0.104998 13.8049 0 14.1374 0C14.959 0 15.7362 0.640499 15.7362 1.575Z"
                fill="#738F44" />
        </symbol>
        <symbol viewBox="0 0 31 31" id="modal-button">
            <path
                d="M25.8571 0H5C2.23858 0 0 2.23858 0 5V25.8571C0 28.6185 2.23858 30.8571 5 30.8571H25.8571C28.6185 30.8571 30.8571 28.6185 30.8571 25.8571V5C30.8571 2.23858 28.6185 0 25.8571 0Z"
                fill="white" />
            <path
                d="M16.5307 20.6991C16.5307 20.2627 16.1604 19.9085 15.7041 19.9085H5.2347C4.7785 19.9085 4.4082 20.2627 4.4082 20.6991C4.4082 21.1355 4.7785 21.4897 5.2347 21.4897H15.7041C16.1604 21.4897 16.5307 21.1355 16.5307 20.6991ZM26.449 15.4285C26.449 14.992 26.0787 14.6379 25.6225 14.6379H5.2347C4.7785 14.6379 4.4082 14.992 4.4082 15.4285C4.4082 15.8649 4.7785 16.2191 5.2347 16.2191H25.6225C26.0787 16.2191 26.449 15.8649 26.449 15.4285ZM22.0409 10.1578C22.0409 9.72139 21.6706 9.36719 21.2143 9.36719H5.2347C4.7785 9.36719 4.4082 9.72139 4.4082 10.1578C4.4082 10.5942 4.7785 10.9484 5.2347 10.9484H21.2143C21.6706 10.9484 22.0409 10.5942 22.0409 10.1578Z"
                fill="black" />
        </symbol>
        <symbol viewBox="0 0 18 11" id="expand" fill="none">
            <path d="M1.85789 1.99998L8.92896 9.07104L16 1.99998" stroke="currentColor"
                stroke-width="3" stroke-linecap="round" stroke-linejoin="round" />
        </symbol>
        <symbol viewBox="0 0 143 104" fill="none" id="user-check" xmlns="http://www.w3.org/2000/svg">
            <path
                d="M106.613 52.0003L83.8337 29.2212L92.9774 20.2378L106.613 33.8732L133.884 6.60241L142.867 15.7462L106.613 52.0003ZM51.7503 52.0003C44.692 52.0003 38.6496 49.4871 33.6232 44.4607C28.5969 39.4344 26.0837 33.392 26.0837 26.3337C26.0837 19.2753 28.5969 13.233 33.6232 8.20658C38.6496 3.18019 44.692 0.666992 51.7503 0.666992C58.8087 0.666992 64.851 3.18019 69.8774 8.20658C74.9038 13.233 77.417 19.2753 77.417 26.3337C77.417 33.392 74.9038 39.4344 69.8774 44.4607C64.851 49.4871 58.8087 52.0003 51.7503 52.0003ZM0.416992 103.334V85.367C0.416992 81.7309 1.35276 78.3889 3.22428 75.341C5.09581 72.293 7.58227 69.967 10.6837 68.3628C17.3142 65.0475 24.0517 62.5611 30.8962 60.9035C37.7406 59.2458 44.692 58.417 51.7503 58.417C58.8087 58.417 65.76 59.2458 72.6045 60.9035C79.4489 62.5611 86.1864 65.0475 92.817 68.3628C95.9184 69.967 98.4048 72.293 100.276 75.341C102.148 78.3889 103.084 81.7309 103.084 85.367V103.334H0.416992ZM13.2503 90.5003H90.2503V85.367C90.2503 84.1906 89.9562 83.1212 89.368 82.1587C88.7798 81.1962 88.0045 80.4475 87.042 79.9128C81.267 77.0253 75.4385 74.8597 69.5566 73.4159C63.6746 71.9722 57.7392 71.2503 51.7503 71.2503C45.7614 71.2503 39.826 71.9722 33.9441 73.4159C28.0621 74.8597 22.2337 77.0253 16.4587 79.9128C15.4962 80.4475 14.7208 81.1962 14.1326 82.1587C13.5444 83.1212 13.2503 84.1906 13.2503 85.367V90.5003ZM51.7503 39.167C55.2795 39.167 58.3007 37.9104 60.8139 35.3972C63.3271 32.884 64.5837 29.8628 64.5837 26.3337C64.5837 22.8045 63.3271 19.7833 60.8139 17.2701C58.3007 14.7569 55.2795 13.5003 51.7503 13.5003C48.2212 13.5003 45.2 14.7569 42.6868 17.2701C40.1736 19.7833 38.917 22.8045 38.917 26.3337C38.917 29.8628 40.1736 32.884 42.6868 35.3972C45.2 37.9104 48.2212 39.167 51.7503 39.167Z"
                fill="currentColor" />
        </symbol>

        <symbol id="loading" viewBox="0 0 24 24" stroke-width="1.5" stroke="currentColor"
            fill="none" stroke-linecap="round" stroke-linejoin="round">
            <path stroke="none" d="M0 0h24v24H0z" fill="none" />
            <path d="M12 3a9 9 0 1 0 9 9" />
        </symbol>
        <symbol id="filter" viewBox="0 0 12 12" fill="none" xmlns="http://www.w3.org/2000/svg">
            <path
                d="M2.66679 2.00008H9.33345L5.99345 6.20008L2.66679 2.00008ZM0.833452 1.74008C2.18012 3.46675 4.66679 6.66675 4.66679 6.66675V10.6667C4.66679 11.0334 4.96678 11.3334 5.33345 11.3334H6.66679C7.03345 11.3334 7.33345 11.0334 7.33345 10.6667V6.66675C7.33345 6.66675 9.81345 3.46675 11.1601 1.74008C11.5001 1.30008 11.1868 0.666748 10.6335 0.666748H1.36012C0.806785 0.666748 0.493452 1.30008 0.833452 1.74008Z"
                fill="currentColor" />
        </symbol>
        <symbol id="no-filter" viewBox="0 0 14 15" fill="none" xmlns="http://www.w3.org/2000/svg">
            <path
                d="M10.8004 2.99984L8.42038 6.03317L9.37371 6.9865C10.0604 6.11317 12.6937 2.73984 12.6937 2.73984C13.0337 2.29984 12.7204 1.6665 12.167 1.6665H4.05371L5.38704 2.99984H10.8004Z"
                fill="currentColor" />
            <path
                d="M1.37342 0.873291L0.426758 1.81329L6.16676 7.66662V11.6666C6.16676 12.0333 6.46676 12.3333 6.83342 12.3333H8.16676C8.53342 12.3333 8.83342 12.0333 8.83342 11.6666V10.22L12.6868 14.0733L13.6268 13.1333L1.37342 0.873291Z"
                fill="currentColor" />
        </symbol>

        <symbol id="order" viewBox="0 0 20 15" fill="none" xmlns="http://www.w3.org/2000/svg">
            <path d="M0.514648 4.5L4.51465 0.5M4.51465 0.5L8.51465 4.5M4.51465 0.5V14.5"
                stroke="currentColor" stroke-linecap="round" stroke-linejoin="round" />
            <path d="M18.5146 10.5L14.5146 14.5M14.5146 14.5L10.5146 10.5M14.5146 14.5V0.5"
                stroke="currentColor" stroke-linecap="round" stroke-linejoin="round" />
        </symbol>
        <symbol
            viewBox="0 0 24 24"
            fill="none"
            stroke="currentColor"
            stroke-width="2"
            stroke-linecap="round"
            stroke-linejoin="round"
            id="close"
        >
            <path d="M18 6l-12 12" />
            <path d="M6 6l12 12" />
        </symbol>
        <symbol id="reset" viewBox="0 0 24 24" fill="none" stroke="currentColor"
            stroke-linecap="round" stroke-linejoin="round" stroke-width="2">
            <path d="M19.95 11a8 8 0 1 0 -.5 4m.5 5v-5h-5"></path>
        </symbol>

        <symbol id="list" viewBox="0 0 12 10">
            <path
                d="M1 10C0.722222 10 0.486222 9.90267 0.292 9.708C0.0973333 9.51378 0 9.27778 0 9C0 8.72222 0.0973333 8.48622 0.292 8.292C0.486222 8.09733 0.722222 8 1 8C1.27778 8 1.51378 8.09733 1.708 8.292C1.90267 8.48622 2 8.72222 2 9C2 9.27778 1.90267 9.51378 1.708 9.708C1.51378 9.90267 1.27778 10 1 10ZM3.33333 9.66667V8.33333H12V9.66667H3.33333ZM1 6C0.722222 6 0.486222 5.90267 0.292 5.708C0.0973333 5.51378 0 5.27778 0 5C0 4.72222 0.0973333 4.48622 0.292 4.292C0.486222 4.09733 0.722222 4 1 4C1.27778 4 1.51378 4.09733 1.708 4.292C1.90267 4.48622 2 4.72222 2 5C2 5.27778 1.90267 5.51378 1.708 5.708C1.51378 5.90267 1.27778 6 1 6ZM3.33333 5.66667V4.33333H12V5.66667H3.33333ZM1 2C0.722222 2 0.486222 1.90267 0.292 1.708C0.0973333 1.51378 0 1.27778 0 1C0 0.722222 0.0973333 0.486222 0.292 0.292C0.486222 0.0973335 0.722222 0 1 0C1.27778 0 1.51378 0.0973335 1.708 0.292C1.90267 0.486222 2 0.722222 2 1C2 1.27778 1.90267 1.51378 1.708 1.708C1.51378 1.90267 1.27778 2 1 2ZM3.33333 1.66667V0.333333H12V1.66667H3.33333Z"
                fill="currentColor" />
        </symbol>


        <symbol id="edit" viewBox="0 0 18 18" fill="none"
            xmlns="http://www.w3.org/2000/svg">
            <path
                d="M16 17.25C16 16.848 15.644 16.5 15.25 16.5C12.689 16.5 3.311 16.5 0.75 16.5C0.356 16.5 0 16.848 0 17.25C0 17.652 0.356 18 0.75 18H15.25C15.644 18 16 17.652 16 17.25ZM8.597 13.852L17.721 4.727C17.892 4.556 18 4.304 18 4.043C18 3.814 17.917 3.577 17.72 3.381L14.605 0.277C14.42 0.0919999 14.176 0 13.933 0C13.69 0 13.447 0.0919999 13.261 0.277L4.118 9.38C3.549 11.143 2.563 14.203 2.492 14.461C2.472 14.536 2.463 14.611 2.463 14.685C2.463 15.146 2.812 15.533 3.228 15.533C3.739 15.533 4.219 15.344 8.597 13.852ZM5.327 10.51L7.464 12.647L4.296 13.693L5.327 10.51ZM6.282 9.344L13.933 1.728L16.268 4.055L8.631 11.693L6.282 9.344Z"
                fill="currentColor" />
        </symbol>

        <svg id="check" viewBox="0 0 20 14" fill="none"
            xmlns="http://www.w3.org/2000/svg">
            <path
                d="M0.25 7.319L7.52 13.81C7.663 13.937 7.841 14 8.019 14C8.225 14 8.429 13.916 8.578 13.751L19.808 1.25C19.937 1.107 20 0.929 20 0.75C20 0.331 19.662 0 19.251 0C19.045 0 18.84 0.0840001 18.692 0.249L7.961 12.194L1.25 6.2C1.106 6.073 0.928 6.01 0.75 6.01C0.333 6.01 0 6.346 0 6.759C0 6.965 0.084 7.171 0.25 7.319Z"
                fill="currentColor" />
        </svg>
        <svg id="cancel" viewBox="0 0 14 14" fill="none"
            xmlns="http://www.w3.org/2000/svg">
            <path fill-rule="evenodd" clip-rule="evenodd"
                d="M7 5.939L12.719 0.219C12.865 0.0729999 13.058 0 13.25 0C13.654 0 14 0.324 14 0.749C14 0.942 13.927 1.134 13.781 1.281L8.061 7L13.78 12.719C13.927 12.866 14 13.058 14 13.25C14 13.677 13.651 14 13.25 14C13.058 14 12.865 13.927 12.719 13.781L7 8.062L1.281 13.781C1.135 13.927 0.942 14 0.75 14C0.349 14 0 13.677 0 13.25C0 13.058 0.0729998 12.866 0.22 12.719L5.939 7L0.219 1.281C0.0729999 1.134 0 0.942 0 0.749C0 0.324 0.346 0 0.75 0C0.942 0 1.135 0.0729999 1.281 0.219L7 5.939Z"
                fill="currentColor" />
        </svg>
        <symbol id="approved" viewBox="0 0 20 17" fill="none"
            xmlns="http://www.w3.org/2000/svg">
            <path
                d="M0 16V13.2C0 12.65 0.141667 12.1333 0.425 11.65C0.708333 11.1667 1.1 10.8 1.6 10.55C2.45 10.1167 3.40833 9.75 4.475 9.45C5.54167 9.15 6.71667 9 8 9C8.5 9 8.9875 9.025 9.4625 9.075C9.9375 9.125 10.4 9.2 10.85 9.3L9.1 11.05C8.91667 11.0167 8.7375 11 8.5625 11H8C6.81667 11 5.75417 11.1417 4.8125 11.425C3.87083 11.7083 3.1 12.0167 2.5 12.35C2.35 12.4333 2.22917 12.55 2.1375 12.7C2.04583 12.85 2 13.0167 2 13.2V14H8.25L10.25 16H0ZM13.55 16.4L10.1 12.95L11.5 11.55L13.55 13.6L18.6 8.55L20 9.95L13.55 16.4ZM8 8C6.9 8 5.95833 7.60833 5.175 6.825C4.39167 6.04167 4 5.1 4 4C4 2.9 4.39167 1.95833 5.175 1.175C5.95833 0.391667 6.9 0 8 0C9.1 0 10.0417 0.391667 10.825 1.175C11.6083 1.95833 12 2.9 12 4C12 5.1 11.6083 6.04167 10.825 6.825C10.0417 7.60833 9.1 8 8 8ZM8 6C8.55 6 9.02083 5.80417 9.4125 5.4125C9.80417 5.02083 10 4.55 10 4C10 3.45 9.80417 2.97917 9.4125 2.5875C9.02083 2.19583 8.55 2 8 2C7.45 2 6.97917 2.19583 6.5875 2.5875C6.19583 2.97917 6 3.45 6 4C6 4.55 6.19583 5.02083 6.5875 5.4125C6.97917 5.80417 7.45 6 8 6Z"
                fill="currentColor" />
        </symbol>


    </defs>
</svg>